<?xml version="1.0" encoding="UTF-8"?>
<!DOCTYPE svg PUBLIC "-//W3C//DTD SVG 1.1//EN" "http://www.w3.org/Graphics/SVG/1.1/DTD/svg11.dtd">
<!-- Creator: CorelDRAW X7 -->
<svg xmlns="http://www.w3.org/2000/svg" xml:space="preserve" width="391.84mm" height="66.1404mm" version="1.1" style="shape-rendering:geometricPrecision; text-rendering:geometricPrecision; image-rendering:optimizeQuality; fill-rule:evenodd; clip-rule:evenodd"
viewBox="0 0 39184 6614"
 xmlns:xlink="http://www.w3.org/1999/xlink">
 <defs>
  <style type="text/css">
   <![CDATA[
    .fil1 {fill:#F06292}
    .fil2 {fill:white}
    .fil0 {fill:#23201C;fill-rule:nonzero}
   ]]>
  </style>
 </defs>
 <g id="Layer_x0020_1">
  <metadata id="CorelCorpID_0Corel-Layer"/>
  <g id="_559047680">
   <path class="fil0" d="M1928 0l4260 0c282,0 537,115 723,300 185,186 300,442 300,723l0 3800c0,281 -115,537 -300,723 -172,171 -403,282 -659,298 0,-12 0,-24 0,-36l0 -401c136,-15 259,-77 351,-169 107,-107 173,-254 173,-415l0 -3800c0,-161 -66,-308 -173,-415 -107,-107 -254,-173 -415,-173l-4260 0c-161,0 -308,66 -415,173 -60,60 -108,133 -137,214l-451 0c40,-201 140,-381 280,-522 186,-185 442,-300 723,-300z"/>
   <path class="fil1" d="M806 1203l4260 0c443,0 805,363 805,806l0 3799c0,443 -362,806 -805,806l-4260 0c-443,0 -806,-363 -806,-806l0 -3799c0,-443 363,-806 806,-806z"/>
   <g>
    <path class="fil2" d="M2934 4331c-431,-281 -749,-793 -601,-1271 137,-446 529,-661 1093,-583l-53 223 754 -240 -566 -555 -52 217c-500,-98 -1053,-31 -1407,320 -574,570 -204,1670 832,1889z"/>
    <path class="fil2" d="M3043 3772c394,322 646,861 438,1319 -194,427 -612,599 -1165,464l81 -215 -783 159 494 608 79 -210c487,149 1047,140 1445,-171 646,-505 416,-1630 -589,-1954z"/>
   </g>
   <path class="fil0" d="M11047 1962l-596 502c-209,-277 -421,-416 -638,-416 -105,0 -192,27 -258,81 -68,54 -101,115 -101,182 0,68 23,132 71,192 66,81 263,253 591,518 307,246 493,401 559,464 162,158 278,308 346,451 68,144 102,301 102,470 0,332 -119,605 -359,821 -239,216 -552,324 -938,324 -301,0 -562,-71 -786,-211 -223,-142 -415,-363 -574,-665l677 -389c204,356 438,534 703,534 138,0 254,-39 349,-116 94,-76 141,-165 141,-266 0,-91 -36,-182 -107,-274 -71,-91 -228,-232 -470,-420 -460,-358 -757,-634 -891,-829 -134,-195 -202,-389 -202,-583 0,-280 112,-520 334,-720 223,-200 499,-301 826,-301 211,0 412,47 602,140 191,94 396,263 619,511zm835 -549l799 0 0 3305 1182 0 0 731 -1981 0 0 -4036zm2533 0l800 0 0 4036 -800 0 0 -4036zm1710 0l952 0c613,0 1069,73 1367,218 298,145 544,381 737,709 193,327 289,710 289,1147 0,311 -54,597 -161,858 -108,260 -258,476 -448,649 -190,171 -396,290 -617,357 -222,65 -606,98 -1153,98l-966 0 0 -4036zm800 742l0 2547 372 0c367,0 633,-41 799,-121 165,-81 300,-217 405,-407 105,-190 158,-424 158,-704 0,-428 -125,-760 -375,-997 -226,-212 -588,-318 -1087,-318l-272 0zm3316 -742l2305 0 0 753 -1505 0 0 725 1505 0 0 742 -1505 0 0 1063 1505 0 0 753 -2305 0 0 -4036zm2646 3281l358 -206c253,446 545,669 876,669 142,0 276,-32 400,-95 125,-62 220,-148 284,-254 66,-105 98,-218 98,-337 0,-135 -48,-267 -144,-397 -132,-179 -373,-396 -725,-648 -353,-255 -572,-438 -658,-552 -150,-190 -225,-396 -225,-617 0,-175 44,-336 133,-480 88,-144 212,-258 373,-341 161,-83 334,-125 522,-125 200,0 387,47 561,142 173,94 357,267 551,519l-345 250c-159,-201 -295,-334 -408,-398 -113,-65 -235,-97 -368,-97 -171,0 -311,50 -420,149 -109,99 -164,220 -164,365 0,87 20,172 58,255 38,82 109,171 211,269 55,50 238,185 548,403 366,258 618,488 754,688 136,202 205,404 205,608 0,292 -117,547 -349,762 -233,217 -516,325 -849,325 -257,0 -490,-66 -699,-197 -209,-131 -402,-352 -578,-660zm5375 -3383c639,0 1174,205 1604,612 430,408 646,910 646,1506 0,591 -215,1093 -644,1504 -430,411 -953,618 -1572,618 -625,0 -1153,-206 -1583,-615 -430,-410 -646,-905 -646,-1487 0,-388 98,-747 294,-1079 196,-330 464,-590 803,-777 338,-188 704,-282 1098,-282zm19 394c-312,0 -608,78 -888,233 -279,156 -498,365 -656,628 -156,264 -235,558 -235,882 0,479 174,883 522,1213 347,331 767,496 1257,496 328,0 631,-76 909,-228 279,-152 497,-360 653,-623 155,-263 234,-556 234,-878 0,-320 -79,-610 -234,-868 -156,-259 -377,-466 -660,-622 -283,-155 -584,-233 -902,-233zm2896 3744l585 -4036 87 0 1718 3311 1707 -3311 63 0 608 4036 -409 0 -423 -2889 -1495 2889 -111 0 -1510 -2912 -405 2912 -415 0zm5591 -4036l2416 0 0 393 -1993 0 0 1265 1975 0 0 394 -1975 0 0 1591 1975 0 0 393 -2398 0 0 -4036z"/>
  </g>
 </g>
</svg>
